<?xml version="1.0" standalone="no"?>
<!DOCTYPE svg PUBLIC "-//W3C//DTD SVG 20010904//EN"
 "http://www.w3.org/TR/2001/REC-SVG-20010904/DTD/svg10.dtd">
<svg version="1.0" xmlns="http://www.w3.org/2000/svg"
 width="512.000000pt" height="512.000000pt" viewBox="0 0 512.000000 512.000000"
 preserveAspectRatio="xMidYMid meet">
<metadata>
Created by potrace 1.16, written by Peter Selinger 2001-2019
</metadata>
<g transform="translate(0.000000,512.000000) scale(0.100000,-0.100000)"
fill="#000000" stroke="none">
<path d="M510 4625 l0 -495 1360 -2 1359 -3 -1064 -1240 c-586 -682 -1065
-1243 -1065 -1247 0 -5 301 -8 668 -8 l668 0 1127 1312 1127 1313 0 432 0 433
-2090 0 -2090 0 0 -495z"/>
<path d="M830 1333 c-46 -54 -90 -106 -98 -115 -14 -17 18 -18 664 -18 l679 1
90 105 c50 58 92 110 93 115 2 5 -261 9 -671 9 l-674 0 -83 -97z"/>
<path d="M476 923 l-56 -67 0 -428 0 -428 2140 0 2140 0 0 495 0 495 -2084 0
-2084 0 -56 -67z"/>
</g>
</svg>
